<?xml version="1.0" encoding="utf-8"?>
<!-- Generator: Adobe Illustrator 17.0.0, SVG Export Plug-In . SVG Version: 6.00 Build 0)  -->
<!DOCTYPE svg PUBLIC "-//W3C//DTD SVG 1.1//EN" "http://www.w3.org/Graphics/SVG/1.1/DTD/svg11.dtd">
<svg version="1.1" id="Capa_1" xmlns="http://www.w3.org/2000/svg" xmlns:xlink="http://www.w3.org/1999/xlink" x="0px" y="0px"
	 width="1529px" height="748px" viewBox="0 0 1529 748" enable-background="new 0 0 1529 748" xml:space="preserve">
<g>
	<g>
		<g>
			<g>
				<g>
					<linearGradient id="SVGID_1_" gradientUnits="userSpaceOnUse" x1="1021.6187" y1="580.5284" x2="1354.5483" y2="203.2082">
						<stop  offset="0" style="stop-color:#4852C7"/>
						<stop  offset="0.3425" style="stop-color:#08AEEA"/>
						<stop  offset="0.8623" style="stop-color:#2AF598"/>
					</linearGradient>
					<path fill="url(#SVGID_1_)" d="M1331.664,470.153l-84.518,84.518c-36.909,36.909-96.75,36.909-133.659,0l-19.401-19.401
						c-3.691-3.691-3.691-9.674,0-13.365l75.189-75.189l50.433-50.433l-125.351-125.351c-3.91-3.91-3.91-10.25,0-14.16
						l25.335-25.335c34.305-34.304,88.456-36.699,125.533-7.214c2.803,2.206,5.513,4.631,8.095,7.214l78.344,78.344
						C1375.95,354.066,1375.95,425.868,1331.664,470.153z"/>
					<linearGradient id="SVGID_2_" gradientUnits="userSpaceOnUse" x1="1300.6364" y1="394.905" x2="1046.7775" y2="109.1404">
						<stop  offset="0" style="stop-color:#4852C7"/>
						<stop  offset="0.3425" style="stop-color:#08AEEA"/>
						<stop  offset="0.8623" style="stop-color:#2AF598"/>
					</linearGradient>
					<path fill="url(#SVGID_2_)" d="M1237.066,378.926l-17.357,17.357L1093.96,270.534c-3.691-3.691-3.691-9.674,0-13.365
						l25.732-25.732c34.305-34.304,88.456-36.699,125.533-7.214C1282.081,269.68,1279.372,336.588,1237.066,378.926z"/>
				</g>
				<g>
					<linearGradient id="SVGID_3_" gradientUnits="userSpaceOnUse" x1="1072.4426" y1="204.6418" x2="797.8087" y2="469.1789">
						<stop  offset="0.05" style="stop-color:#FFCD00"/>
						<stop  offset="1" style="stop-color:#F4364C"/>
					</linearGradient>
					<path fill="url(#SVGID_3_)" d="M921.46,227.046l47.287-47.287c20.65-20.65,54.13-20.65,74.781,0l10.854,10.854
						c2.065,2.065,2.065,5.413,0,7.477l-42.067,42.067l-28.217,28.217l69.227,69.227c2.688,2.688,2.688,7.046,0,9.734
						l-13.269,13.269c-19.193,19.193-49.49,20.532-70.234,4.036c-1.568-1.234-3.084-2.591-4.529-4.036l-43.832-43.832
						C896.683,291.995,896.683,251.824,921.46,227.046z"/>
					<linearGradient id="SVGID_4_" gradientUnits="userSpaceOnUse" x1="1056.0481" y1="402.7753" x2="923.3312" y2="248.3271">
						<stop  offset="0.0275" style="stop-color:#FFCD00"/>
						<stop  offset="0.8339" style="stop-color:#F4364C"/>
					</linearGradient>
					<path fill="url(#SVGID_4_)" d="M974.386,278.087l9.711-9.711l70.355,70.355c2.065,2.065,2.065,5.413,0,7.477l-14.397,14.397
						c-19.193,19.193-49.49,20.532-70.234,4.036C949.201,339.208,950.717,301.774,974.386,278.087z"/>
				</g>
			</g>
		</g>
	</g>
	<g>
		<path fill="#FFFFFF" d="M251.36,494.387l-36.882-15.894c-11.445-5.088-14.943-8.586-14.943-16.216
			c0-9.221,7.63-13.035,27.979-13.035c13.669,0,26.071,1.59,37.833,5.088c10.177,2.859,13.035,0.317,13.035-10.811v-3.815
			c0-10.177-1.908-12.401-13.352-15.899c-11.445-3.181-23.846-4.766-36.882-4.766c-41.965,0-60.728,13.67-60.728,43.238
			c0,22.573,8.904,33.384,31.476,43.238l34.34,15.26c16.216,7.313,20.348,11.133,20.348,19.08c0,10.172-7.947,13.67-29.569,13.67
			c-15.577,0-31.159-1.907-46.419-6.04c-10.177-2.547-12.718,0-12.718,11.128v4.132c0,10.177,2.225,12.718,12.718,15.577
			c13.67,3.498,28.296,5.406,43.555,5.406c44.512,0,64.226-13.987,64.226-44.512C285.378,516.326,275.523,504.564,251.36,494.387z"
			/>
		<path fill="#FFFFFF" d="M408.097,550.027c-7.63,1.907-16.216,2.863-25.754,2.863c-16.533,0-24.797-9.22-24.797-27.661v-72.173
			h0.096v-30.52h-0.096v-29.891c0-9.221-2.225-11.445-11.445-11.445h-4.137c-9.22,0-11.762,2.225-13.035,11.445l-3.815,29.891
			l-16.85,3.176c-8.581,1.59-10.811,4.132-10.811,13.035v3.181c0,8.903,2.229,11.128,11.128,11.128h16.533v71.856
			c0,39.106,19.08,58.498,57.23,58.498c7.947,0,16.533-0.951,25.754-2.542c10.494-2.225,13.035-5.406,13.035-15.899v-3.815
			C421.133,550.027,418.591,547.802,408.097,550.027z M402.058,422.536h-23.259c-5.559,0-10.066,4.507-10.066,10.066v17.868
			c0,1.428,1.158,2.586,2.586,2.586h30.739c10.489,0,13.353-2.225,13.353-13.352v-3.815
			C415.41,424.761,412.546,422.536,402.058,422.536z"/>
		<path fill="#FFFFFF" d="M559.724,502.616c6.504-2.407,10.824-8.605,10.832-15.54l0.002-2.226
			c0-43.238-19.163-65.811-64.861-65.811c-47.053,0-70.582,22.89-70.582,68.992v27.661c0,47.37,24.48,68.036,78.212,68.036
			c15.26,0,28.935-1.586,41.331-5.083c11.128-2.864,13.035-5.088,13.035-15.582v-4.132c0-11.128-2.859-13.669-13.035-11.128
			c-14.304,3.498-27.978,5.088-41.331,5.088c-32.11,0-45.463-9.22-45.463-32.432V478.81c0-20.983,12.396-31.476,36.882-31.476
			c22.55,0,34.85,5.919,37.128,22.836c0.465,3.454-1.58,6.771-4.879,7.895l-52.664,20.486c-2.431,0.828-4.065,3.112-4.065,5.68
			v15.69c0,6.322,6.3,10.708,12.229,8.514L559.724,502.616z"/>
		<path fill="#FFFFFF" d="M695.496,550.027c-10.172,1.907-18.441,2.863-24.48,2.863c-31.793,0-43.555-9.22-43.555-36.882v-29.886
			c0-26.71,10.811-36.565,41.331-36.565c9.537,0,17.485,0.956,23.529,3.181c10.172,2.859,13.353,0.634,13.353-10.494v-4.132
			c0-10.494-2.225-13.352-12.718-15.899c-8.264-2.225-16.533-3.176-24.797-3.176c-48.01,0-73.446,24.48-73.446,66.768v31.154
			c0,44.512,24.798,66.768,74.715,66.768c8.586,0,17.173-0.951,25.754-3.176c10.494-2.547,13.353-5.723,13.353-15.899v-3.815
			C708.531,550.344,705.672,547.802,695.496,550.027z"/>
		<path fill="#FFFFFF" d="M810.907,419.038c-7.203,0-13.777,0.661-19.711,1.973c-11.627,2.571-19.844,12.974-19.844,24.882v7.603
			c0,2.051,2.283,3.296,3.99,2.159c6.265-4.17,14.706-6.097,25.387-6.097c23.846,0,33.701,8.903,33.701,29.569v86.799
			c0,11.445,2.864,14.309,14.309,14.309h4.132c11.45,0,14.309-2.864,14.309-14.309v-91.887
			C867.181,437.157,846.515,419.038,810.907,419.038z M761.624,371.98c0-11.445-2.859-14.304-14.309-14.304h-4.132
			c-11.445,0-14.309,2.859-14.309,14.304v193.946c0,11.445,2.864,14.309,14.309,14.309h4.132c11.45,0,14.309-2.864,14.309-14.309
			v-76.305C761.624,487.769,761.624,371.98,761.624,371.98z"/>
		<path fill="#FFFFFF" d="M977.182,494.387L940.3,478.493c-11.445-5.088-14.943-8.586-14.943-16.216
			c0-9.221,7.63-13.035,27.978-13.035c13.67,0,26.071,1.59,37.833,5.088c10.177,2.859,13.035,0.317,13.035-10.811v-3.815
			c0-10.177-1.908-12.401-13.352-15.899c-11.445-3.181-23.846-4.766-36.882-4.766c-41.965,0-60.728,13.67-60.728,43.238
			c0,22.573,8.903,33.384,31.476,43.238l34.34,15.26c16.216,7.313,20.348,11.133,20.348,19.08c0,10.172-7.947,13.67-29.569,13.67
			c-15.577,0-31.159-1.907-46.419-6.04c-10.177-2.547-12.718,0-12.718,11.128v4.132c0,10.177,2.225,12.718,12.718,15.577
			c13.67,3.498,28.296,5.406,43.555,5.406c44.512,0,64.226-13.987,64.226-44.512C1011.2,516.326,1001.345,504.564,977.182,494.387z"
			/>
	</g>
</g>
</svg>
